# xmcd
# 
# Track frame offsets:
#     150
#     18275
#     43438
#     68951
#     93011
#     103447
#     123737
#     142442
#     168987
#     182146
#     211021
#     230746
#     244025
#     259955
# 
# Disc length: 3755
# 
# Revision: 811721100
# Processed by: cddbd v1.5.2PL0 Copyright (c) Steve Scherf et al.
# Submitted via: fre:ac v1.0.31
# 
DISCID=d70ea90e
DTITLE=Blues - This Ain't No Tribute Disc 5 Whole Lotta Blues Songs Of Led Zeppelin Disc 5
DYEAR=1999
DGENRE=Blues
TTITLE0=Custard Pie
TTITLE1=Custard Pie -Revisited
TTITLE2=Heartbreaker
TTITLE3=I Can't Quit You Baby
TTITLE4=When The Levee Breaks Pt 1
TTITLE5=When The Levee Breaks Pt 2
TTITLE6=Hey Hey -What Can I Do
TTITLE7=Rock N' Roll
TTITLE8=You Need Love
TTITLE9=Since I've Been Loving You
TTITLE10=Good Times Bad Times
TTITLE11=Bring It On Home Pt 1
TTITLE12=Bring It On Home Pt 2
TTITLE13=Trampled Underfoot
EXTD=
EXTT0=
EXTT1=
EXTT2=
EXTT3=
EXTT4=
EXTT5=
EXTT6=
EXTT7=
EXTT8=
EXTT9=
EXTT10=
EXTT11=
EXTT12=
EXTT13=
PLAYORDER=
